# AST/ASF file generated using VICON BodyLanguage
# -----------------------------------------------
:version 1.10
:name VICON
:units
  mass 1.0
  length 0.45
  angle deg
:documentation
   .ast/.asf automatically generated from VICON data using
   VICON BodyBuilder and BodyLanguage model FoxedUp or BRILLIANT.MOD
:root
   order TX TY TZ RX RY RZ
   axis XYZ
   position 0 0 0  
   orientation 0 0 0 
:bonedata
  begin
     id 1 
     name lhipjoint
     direction 0.671379 -0.66392 0.329334 
     length 2.38647 
     axis 0 0 0  XYZ
  end
  begin
     id 2 
     name lfemur
     direction 0.34202 -0.939693 0  
     length 6.48179  
     axis 0 0 20  XYZ
    dof rx ry rz
    limits (-160.0 20.0)
           (-70.0 70.0)
           (-60.0 70.0)
  end
  begin
     id 3 
     name ltibia
     direction 0.34202 -0.939693 0   
     length 6.86524   
     axis 0 0 20   XYZ
    dof rx
    limits (-10.0 170.0)
  end
  begin
     id 4 
     name lfoot
     direction 0.204886 -0.562919 0.800715   
     length 1.73031   
     axis -90 7.62852e-016 20   XYZ
    dof rx rz
    limits (-45.0 90.0)
           (-70.0 20.0)
  end
  begin
     id 5 
     name ltoes
     direction 1.53548e-011 -4.21841e-011 1   
     length 0.828161   
     axis -90 7.62852e-016 20   XYZ
    dof rx
    limits (-90.0 20.0)
  end
  begin
     id 6 
     name rhipjoint
     direction -0.662732 -0.670855 0.332775   
     length 2.3618  
     axis 0 0 0  XYZ 
  end
  begin
     id 7 
     name rfemur
     direction -0.34202 -0.939693 0   
     length 6.3025   
     axis 0 0 -20   XYZ
    dof rx ry rz
    limits (-160.0 20.0)
           (-70.0 70.0)
           (-70.0 60.0)
  end
  begin
     id 8 
     name rtibia
     direction -0.34202 -0.939693 0   
     length 6.8732   
     axis 0 0 -20   XYZ
    dof rx
    limits (-10.0 170.0)
 end
 begin
     id 9 
     name rfoot
     direction -0.173856 -0.477665 0.861168   
     length 1.54784  
     axis -90 -7.62852e-016 -20   XYZ
    dof rx rz
    limits (-45.0 90.0)
           (-20.0 70.0)
  end
  begin
     id 10 
     name rtoes
     direction -1.53562e-011 -4.21802e-011 1   
     length 0.759618   
     axis -90 -7.62852e-016 -20   XYZ
    dof rx
    limits (-90.0 20.0)
  end
  begin
     id 11 
     name lowerback
     direction -0.0278357 0.999497 -0.0151789   
     length 1.97203   
     axis 0 0 0   XYZ
    dof rx ry rz
    limits (-20.0 45.0)
           (-30.0 30.0)
           (-30.0 30.0)
  end
  begin
     id 12 
     name upperback
     direction -0.00360622 0.997542 0.0699804   
     length 1.94709   
     axis 0 0 0   XYZ
    dof rx ry rz
    limits (-20.0 45.0)
           (-30.0 30.0)
           (-30.0 30.0)
  end
  begin
     id 13 
     name thorax
     direction 0.00907706 0.997048 0.0762461   
     length 1.95722   
     axis 0 0 0   XYZ
    dof rx ry rz
    limits (-20.0 45.0)
           (-30.0 30.0)
           (-30.0 30.0)
  end
  begin
     id 14 
     name lowerneck
     direction -0.0481835 0.99872 -0.0153927   
     length 1.63078   
     axis 0 0 0   XYZ
    dof rx ry rz
    limits (-20.0 45.0)
           (-30.0 30.0)
           (-30.0 30.0)
  end
  begin
     id 15 
     name upperneck
     direction 0.0859716 0.979226 -0.183644   
     length 1.62591   
     axis 0 0 0   XYZ
    dof rx ry rz
    limits (-20.0 45.0)
           (-30.0 30.0)
           (-30.0 30.0)
  end
  begin
     id 16
     name head
     direction 0.0324821 0.997629 -0.0606773  
     length 1.64811  
     axis 0 0 0   XYZ
    dof rx ry rz
    limits (-20.0 45.0)
           (-30.0 30.0)
           (-30.0 30.0)
  end
  begin
     id 17 
     name lclavicle
     direction 0.939609 0.311019 0.142835  
     length 3.70647  
     axis 0 0 0   XYZ
    dof ry rz
    limits (-20.0 10.0)
           (0.0 20.0)
  end
  begin
     id 18 
     name lhumerus
     direction 1 -4.48963e-011 -1.59838e-027   
     length 4.59207   
     axis 180 -30 -90   XYZ
    dof rx ry rz
    limits (-60.0 90.0)
           (-90.0 90.0)
           (-90.0 90.0)
  end
  begin
     id 19
     name lradius
     direction 1 -4.48957e-011 -1.3483e-026   
     length 2.98109   
     axis 180 -30 -90   XYZ
    dof rx
    limits (-10.0 170.0)
  end
  begin
     id 20
     name lwrist
     direction 1 -4.48954e-011 -3.11579e-026   
     length 1.49055   
     axis 2.00652e-014 90 90   XYZ
    dof ry
    limits (-180.0 0.0)
 end
  begin
     id 21 
     name lhand
     direction 1 -4.4911e-011 -6.23158e-026   
     length 0.480203   
     axis 3.97628e-014 90 90   XYZ
    dof rx rz
    limits (-90.0 90.0)
           (-45.0 45.0)
  end
  begin
     id 22 
     name lfingers
     direction 1 -4.48893e-011 -1.24632e-025   
     length 0.387152   
     axis 7.95256e-014 90 90   XYZ
    dof rx
    limits (0.0 90.0)
  end
  begin
     id 23
     name lthumb
     direction 0.707107 -6.35013e-011 0.707107   
     length 0.555875   
     axis -90 45 2.85299e-015   XYZ
    dof rx rz
    limits (-45.0 45.0)
           (-45.0 45.0)
  end
  begin
     id 24 
     name rclavicle
     direction -0.950396 0.30392 0.0661859   
     length 3.70894  
     axis 0 0 0   XYZ 
    dof ry rz
    limits (-10.0 20.0)
           (-20.0 0.0)
  end
  begin
     id 25 
     name rhumerus
     direction -1 -4.48957e-011 -2.96677e-027  
     length 4.76508   
     axis 180 30 90   XYZ
    dof rx ry rz
    limits (-90.0 60.0)
           (-90.0 90.0)
           (-90.0 90.0)
  end
  begin
     id 26 
     name rradius
     direction -1 -4.48974e-011 -1.44501e-026   
     length 2.78902   
     axis 180 30 90   XYZ
    dof rx
    limits (-10.0 170.0)
  end
  begin
     id 27 
     name rwrist
     direction -1 -4.48978e-011 -3.11579e-026   
     length 1.39451   
     axis 2.00652e-014 -90 -90   XYZ
    dof ry
    limits (-180.0 0.0)
  end
  begin
     id 28
     name rhand
     direction -1 -4.48956e-011 -6.23158e-026   
     length 0.721303   
     axis 3.97628e-014 -90 -90   XYZ
    dof rx rz
    limits (-90.0 90.0)
           (-45.0 45.0)
  end
  begin
     id 29
     name rfingers
     direction -1 -4.4899e-011 -1.24632e-025   
     length 0.581533   
     axis 7.95256e-014 -90 -90   XYZ
    dof rx
    limits (0.0 90.0)
  end
  begin
     id 30
     name rthumb
     direction -0.707107 -6.34911e-011 0.707107   
     length 0.834968   
     axis -90 -45 -2.85299e-015   XYZ
    dof rx rz
    limits (-45.0 45.0)
           (-45.0 45.0)
  end
:hierarchy
  begin
    root lhipjoint rhipjoint lowerback
    lhipjoint lfemur
    lfemur ltibia
    ltibia lfoot
    lfoot ltoes
    rhipjoint rfemur
    rfemur rtibia
    rtibia rfoot
    rfoot rtoes
    lowerback upperback
    upperback thorax
    thorax lowerneck lclavicle rclavicle
    lowerneck upperneck
    upperneck head
    lclavicle lhumerus
    lhumerus lradius
    lradius lwrist
    lwrist lhand lthumb
    lhand lfingers
    rclavicle rhumerus
    rhumerus rradius
    rradius rwrist
    rwrist rhand rthumb
    rhand rfingers
  end

#!OML:ASF I:\salsa\salsa 7_09\Patient 1\Session 1\dancerfemale.ASF
:FULLY-SPECIFIED
:DEGREES
1349
root 4.7228 15.6468 6.98725 -178.322 7.95771 187.205
lowerback 6.75202 -4.07154 4.2985
upperback -5.00573 -4.70643 1.60209
thorax -9.3316 -2.43067 -0.00624814
lowerneck 7.07378 10.9903 0.469622
upperneck 1.69833 16.0396 15.4432
head -2.08362 8.14505 4.23569
rclavicle -5.2827e-014 -1.19271e-015
rhumerus 57.4472 -46.8704 -17.8185
rradius 100.201
rwrist -5.4729
rhand -13.5437 63.5363
rfingers 7.12502
rthumb 12.569 33.9344
lclavicle -5.2827e-014 -1.19271e-015
lhumerus -24.7959 -26.8629 107.833
lradius 114.113
lwrist 0.143909
lhand -17.9953 29.1442
lfingers 7.12502
lthumb 8.27484 58.9622
rfemur -14.626 0.708083 33.7165
rtibia 29.3066
rfoot -20.5283 14.4378
rtoes -17.5662
lfemur -34.6866 -8.71821 1.68341
ltibia 66.953
lfoot -2.48222 -12.6578
ltoes -7.56123
1350
root 4.66629 15.681 7.00246 -177.155 11.0853 185.596
lowerback 6.36098 -4.01831 3.30113
upperback -5.48903 -4.80803 0.940495
thorax -9.60053 -2.44821 -0.145693
lowerneck 6.15883 11.6748 0.632548
upperneck 1.99782 16.7964 15.0797
head -1.82381 8.55042 4.09993
rclavicle -2.2413e-014 9.54166e-015
rhumerus 57.3565 -49.3573 -18.6867
rradius 100.925
rwrist -5.73533
rhand -14.244 63.9059
rfingers 7.12502
rthumb 11.8938 34.2637
lclavicle -2.2413e-014 9.54166e-015
lhumerus -23.6375 -27.563 107.57
lradius 115.453
lwrist -1.73823
lhand -18.1809 30.7771
lfingers 7.12502
lthumb 8.09576 60.602
rfemur -16.5521 4.15013 31.7789
rtibia 30.4937
rfoot -21.2274 12.738
rtoes -20.4752
lfemur -31.6154 -11.1359 0.247575
ltibia 63.2949
lfoot -2.76604 -10.6316
ltoes -5.30647
1351
root 4.61158 15.7325 7.00911 -175.997 14.5367 183.685
lowerback 5.85935 -3.93709 2.01699
upperback -6.15312 -4.87905 0.179079
thorax -9.98804 -2.41843 -0.240868
lowerneck 5.31674 12.3161 0.835134
upperneck 2.30409 17.4985 14.6817
head -1.56185 8.92646 3.95791
rclavicle 3.99557e-014 -8.74653e-015
rhumerus 56.972 -51.696 -19.7764
rradius 101.652
rwrist -5.98234
rhand -15.2151 64.2883
rfingers 7.12502
rthumb 10.9573 34.5942
lclavicle 3.99557e-014 -8.74653e-015
lhumerus -23.0288 -28.059 107.271
lradius 116.9
lwrist -3.85325
lhand -19.9889 30.8913
lfingers 7.12502
lthumb 6.35051 60.7761
rfemur -18.7009 7.9296 29.3032
rtibia 31.6621
rfoot -22.011 10.2048
rtoes -23.9052
lfemur -28.4409 -11.9466 -2.13365
ltibia 58.8935
lfoot -10.3602 -9.7764
ltoes -19.5714
1352
root 4.55243 15.7664 7.01522 -174.834 18.2182 181.83
lowerback 5.41417 -3.91884 0.784788
upperback -7.03969 -4.98249 -0.527724
thorax -10.6657 -2.37874 -0.296231
lowerneck 4.6903 12.9316 0.994022
upperneck 2.55645 18.1885 14.3424
head -1.36437 9.28561 3.83583
rclavicle 3.18055e-014 3.18055e-015
rhumerus 56.2289 -53.9347 -20.6875
rradius 102.235
rwrist -6.71784
rhand -15.9718 64.5229
rfingers 7.12502
rthumb 10.2273 34.7915
lclavicle 3.18055e-014 3.18055e-015
lhumerus -22.1442 -28.2358 106.926
lradius 117.982
lwrist -5.88989
lhand -22.5625 30.6801
lfingers 7.12502
lthumb 3.86558 60.6248
rfemur -21.2568 9.22199 26.8251
rtibia 32.8105
rfoot -22.7214 9.64819
rtoes -26.1717
lfemur -25.624 -12.0088 -4.67394
ltibia 54.4811
lfoot -14.4336 -6.53697
ltoes -22.2379
1353
root 4.5052 15.8306 7.0269 -173.793 22.0813 180.155
lowerback 5.07768 -3.95419 -0.460483
upperback -7.99928 -5.12759 -1.05703
thorax -11.4861 -2.32555 -0.149598
lowerneck 4.27618 13.4937 1.15579
upperneck 2.58279 18.8229 13.8125
head -1.24927 9.59229 3.63718
rclavicle -6.32135e-014 -2.70347e-014
rhumerus 54.9869 -56.0856 -21.1429
rradius 102.658
rwrist -8.16129
rhand -15.9449 65.1674
rfingers 7.12502
rthumb 10.2533 35.4373
lclavicle -6.32135e-014 -2.70347e-014
lhumerus -20.0079 -28.0704 106.698
lradius 118.079
lwrist -7.08989
lhand -24.551 30.2743
lfingers 7.12502
lthumb 1.94518 60.2452
rfemur -23.7088 10.2123 24.5903
rtibia 33.7743
rfoot -23.0254 8.94858
rtoes -26.0017
lfemur -23.4167 -10.6165 -7.48691
ltibia 50.4432
lfoot -17.0454 -1.35637
ltoes -21.0119
